<svg width="46" height="46" viewBox="0 0 46 46" fill="none" xmlns="http://www.w3.org/2000/svg">
<rect x="1" y="1" width="44" height="44" rx="22" stroke="url(#paint0_linear_1_1589)" stroke-width="2"/>
<path d="M13.2 35.04C11.8133 35.04 11.12 34.1467 11.12 32.36C11.12 30.2 12.1733 27.3867 14.28 23.92C12.4933 23.7333 11.6 23.3867 11.6 22.88C11.6 22.4 12.1333 22.16 13.2 22.16C13.4667 22.16 14.1733 22.2 15.32 22.28C20.0133 15.2667 23.7733 10.9733 26.6 9.4C26.6267 9.37333 26.7067 9.36 26.84 9.36C27.5333 9.36 27.88 10.0133 27.88 11.32C27.88 12.1733 27.76 12.7467 27.52 13.04C27.4933 13.1467 27.4667 13.2933 27.44 13.48C27.44 13.6667 27.44 13.8933 27.44 14.16C27.44 15.5733 27.4933 16.96 27.6 18.32C27.7067 19.6533 27.8667 20.96 28.08 22.24L30.08 22C30.5067 21.9467 30.88 21.9067 31.2 21.88C31.5467 21.8267 31.8533 21.8 32.12 21.8C32.2533 21.8 32.32 21.8267 32.32 21.88C32.32 22.04 31.68 22.24 30.4 22.48C29.12 22.6667 28.4 22.8933 28.24 23.16C28.6133 26.0667 29.2267 28.2 30.08 29.56C30.6133 30.4133 31.12 30.84 31.6 30.84C31.76 30.84 31.96 30.7867 32.2 30.68C32.44 30.5467 32.5733 30.48 32.6 30.48C32.6533 30.5333 32.68 30.56 32.68 30.56C32.68 30.56 32.28 31.1067 31.48 32.2C31.16 32.5467 30.8267 32.72 30.48 32.72C29.3867 32.72 28.4933 31.2933 27.8 28.44C27.6133 27.5867 27.44 26.6933 27.28 25.76C27.1467 24.8267 27.0533 23.8667 27 22.88C23.6933 23.2 21.0533 23.44 19.08 23.6C17.1067 23.76 15.8133 23.8533 15.2 23.88C13.28 27.32 12.32 29.9733 12.32 31.84C12.32 33.3067 12.9867 34.04 14.32 34.04C14.9067 34.04 15.64 33.88 16.52 33.56V33.64C16.52 33.8267 16.04 34.1067 15.08 34.48C14.12 34.8533 13.4933 35.04 13.2 35.04ZM22.24 22.44C23.8667 22.44 25.4533 22.4 27 22.32C26.8667 21.7067 26.72 20.96 26.56 20.08C26.4267 19.1733 26.2933 18.12 26.16 16.92L25.6 11.4C22.8 13.3733 19.6667 17 16.2 22.28C17.2933 22.3333 18.3333 22.3733 19.32 22.4C20.3333 22.4267 21.3067 22.44 22.24 22.44Z" fill="url(#paint1_linear_1_1589)"/>
<defs>
<linearGradient id="paint0_linear_1_1589" x1="28.75" y1="1.4375" x2="31.05" y2="46" gradientUnits="userSpaceOnUse">
<stop stop-color="#AB71C6"/>
<stop offset="0.507276" stop-color="#8A6EE0"/>
<stop offset="1" stop-color="#6A6CF9"/>
</linearGradient>
<linearGradient id="paint1_linear_1_1589" x1="26" y1="4" x2="26" y2="34" gradientUnits="userSpaceOnUse">
<stop stop-color="#AB71C6"/>
<stop offset="0.505" stop-color="#8A6EE0"/>
<stop offset="1" stop-color="#6A6CF9"/>
</linearGradient>
</defs>
</svg>
